<svg width="156" height="27" viewBox="0 0 156 27" fill="none" xmlns="http://www.w3.org/2000/svg">
<path d="M32.75 2.96875V22.618H36.1284V5.62634H42.1593V22.618H45.5378V2.96875H32.75Z" fill="#1E1E1E"/>
<path d="M51.3905 8.39702H48.3192V26.7174H51.6417V20.9499C52.4794 22.2222 53.7079 22.9007 55.1319 22.9007C58.3707 22.9007 60.6043 20.2714 60.6043 15.4934C60.6043 10.7436 58.4265 8.1143 55.2994 8.1143C53.7358 8.1143 52.4515 8.84938 51.558 10.2347L51.3905 8.39702ZM54.2942 20.2431C52.5352 20.2431 51.6417 18.8012 51.6417 15.5216C51.6417 12.2138 52.5911 10.7719 54.4618 10.7719C56.2766 10.7719 57.1701 12.2138 57.1701 15.4934C57.1701 18.8012 56.2208 20.2431 54.2942 20.2431Z" fill="#1E1E1E"/>
<path d="M73.1868 12.9206C73.1868 9.47137 71.4558 8.17084 67.9377 8.17084C65.732 8.17084 64.0009 8.87765 62.9957 9.47137V12.2703C63.8892 11.5918 65.8437 10.8567 67.5468 10.8567C69.1383 10.8567 69.8643 11.4222 69.8643 12.9489V13.7405H69.3338C64.2522 13.7405 61.9906 15.4368 61.9906 18.3206C61.9906 21.2043 63.7217 22.8159 66.2904 22.8159C68.2448 22.8159 69.0825 22.1656 69.7247 21.4871H69.8643C69.8922 21.8546 70.0039 22.3352 70.1156 22.618H73.3544C73.2427 21.4588 73.1868 20.2996 73.1868 19.1405V12.9206ZM69.8643 19.2253C69.4454 19.8473 68.6637 20.3562 67.491 20.3562C66.0949 20.3562 65.3969 19.5646 65.3969 18.3489C65.3969 16.7373 66.5417 16.1436 69.3896 16.1436H69.8643V19.2253Z" fill="#1E1E1E"/>
<path d="M84.095 22.618H87.8643L82.5314 15.0693L87.2221 8.39702H83.8716L79.1809 15.0693V8.39702H75.8583V22.618H79.1809V15.7478L84.095 22.618Z" fill="#1E1E1E"/>
<path d="M99.0036 11.0546V8.39702H87.8632V11.0546H91.7721V22.618H95.0947V11.0546H99.0036Z" fill="#1E1E1E"/>
<path d="M100.971 8.39702V22.618H103.93L109.012 13.8253V22.618H112.223V8.39702H109.263L104.182 17.1897V8.39702H100.971Z" fill="#1E1E1E"/>
<path d="M123.25 22.618H127.019L121.686 15.0693L126.377 8.39702H123.026L118.336 15.0693V8.39702H115.013V22.618H118.336V15.7478L123.25 22.618Z" fill="#1E1E1E"/>
<path d="M129.942 27.0002C133.042 27.0002 134.186 24.7667 135.136 21.8546L139.519 8.39702H136.308L133.209 19.0839L130.11 8.39702H126.62L131.45 23.24C131.087 23.9185 130.557 24.3426 129.635 24.3426C129.021 24.3426 128.49 24.1447 128.128 23.7771V26.5195C128.128 26.5195 128.63 27.0002 129.942 27.0002Z" fill="#1E1E1E"/>
<path d="M152.758 22.618H155.997L155.941 8.39702H151.39L148.346 17.8682L145.61 8.39702H140.78V22.618H143.6V11.9876L146.643 22.618H149.351L152.758 11.9876V22.618Z" fill="#1E1E1E"/>
<circle cx="13" cy="13" r="13" fill="#FC3F1D"/>
<path d="M15.0463 21.125H17.8802V4.875H13.7549C9.60574 4.875 7.42951 6.99872 7.42951 10.1366C7.42951 12.8449 8.84047 14.3721 11.3396 16.0305L12.8581 17.0327L10.9091 15.3981L7.04688 21.125H10.1199L14.2452 14.9686L12.8103 14.0141C11.0765 12.8449 10.2275 11.9381 10.2275 9.96953C10.2275 8.23954 11.4472 7.0703 13.7669 7.0703H15.0344V21.125H15.0463Z" fill="white"/>
</svg>
